<svg width="64" height="64" viewBox="0 0 24 24" fill="none" xmlns="http://www.w3.org/2000/svg">
  <path d="M6.62 10.79C8.06 13.93 10.07 15.94 13.21 17.38L15 15.59C15.2 15.39 15.5 15.33 15.76 15.41C16.85 15.74 18.03 15.91 19.25 15.91C19.66 15.91 20 16.25 20 16.66V20C20 20.55 19.55 21 19 21C10.61 21 3.99 14.39 3.99 6C3.99 5.45 4.44 5 4.99 5H8.34C8.75 5 9.09 5.34 9.09 5.75C9.09 6.97 9.26 8.15 9.59 9.24C9.67 9.5 9.61 9.8 9.41 10L7.62 11.79C7.73 12.07 7.86 12.34 8 12.6L6.62 10.79Z" fill="#2C2E3E"/>
</svg>